# xmcd CD database file
#
# Track frame offsets:
#	150
#	25550
#	55425
#	80955
#	99460
#	117982
#	139985
#	166627
#	193202
#	213257
#	242820
#	264147
#	293202
#
# Disc length: 4274 seconds
#
# Revision: 0
# Processed by: cddbd v1.5PL3 Copyright (c) Steve Scherf et al.
# Submitted via: CDex 1.51
#
DISCID=b910b00d
DTITLE=Hector Martignon - Retrato em branco e preto
DYEAR=1996
DGENRE=Jazz
TTITLE0=Teorema
TTITLE1=Gabriela
TTITLE2=She said she was from Sarajevo
TTITLE3=Portrait in white and black
TTITLE4=Coqueteos
TTITLE5=Laura
TTITLE6=Colombaiao
TTITLE7=Noviembre, susurro y cumbia
TTITLE8=La puerta
TTITLE9=Hell's kitchen sarabande
TTITLE10=La candelaria
TTITLE11=Tomorrow's past
TTITLE12=You and the night and the music
EXTD=YEAR: 1996
EXTT0=
EXTT1=
EXTT2=
EXTT3=
EXTT4=
EXTT5=
EXTT6=
EXTT7=
EXTT8=
EXTT9=
EXTT10=
EXTT11=
EXTT12=
PLAYORDER=
